<svg id="Capa_1" enable-background="new 0 0 512 512" height="512" viewBox="0 0 512 512" width="512" xmlns="http://www.w3.org/2000/svg"><g><g><path d="m256 512c-140.596 0-256-115.39-256-256s115.404-256 256-256 256 115.39 256 256-115.404 256-256 256z" fill="#66b3ff"/></g><path d="m512 256c0-140.61-115.404-256-256-256v512c140.596 0 256-115.39 256-256z" fill="#4d88ff"/><g><path d="m166 204.099v224.701c-60-31.201-101.7-93.001-104.7-164.401z" fill="#cfe6e6"/><path d="m360.7 420.399c-30.301 19.201-66.299 30.601-104.7 30.601-32.401 0-62.999-8.101-90-22.2v-120.901l90 51.899z" fill="#e6f2f2"/><path d="m451 256c0 69-36 129.6-90.3 164.399l-104.7-60.6 90-51.899 104.7-60.3c.3 2.7.3 5.699.3 8.4z" fill="#a3c6cc"/><path d="m450.7 247.599-104.7 60.3v-224.699c60 31.199 101.7 92.999 104.7 164.399z" fill="#cfe6e6"/><path d="m346 83.2v120.899l-90-51.899-104.7-60.601c30.301-19.199 66.299-30.599 104.7-30.599 32.401 0 62.999 8.099 90 22.2z" fill="#cfe6e6"/><path d="m256 152.199-90 51.899-104.7 60.3c-.3-2.698-.3-5.699-.3-8.398 0-69 36-129.6 90.3-164.401z" fill="#e6f2f2"/></g><path d="m346 204.099v-120.899c-27.001-14.101-57.599-22.2-90-22.2v91.199z" fill="#a3c6cc"/><path d="m360.7 420.399-104.7-60.6v91.201c38.401 0 74.399-11.4 104.7-30.601z" fill="#cfe6e6"/><g id="Shutter_1_"><path d="m346 204.099v103.8l-90 51.9-90-51.9v-103.8l90-51.9z" fill="#5c5c99"/></g><path d="m346 307.899v-103.8l-90-51.9v207.6z" fill="#404080"/></g></svg>