<svg width="15" height="15" viewBox="0 0 15 15" fill="none" xmlns="http://www.w3.org/2000/svg">
<path d="M14.5711 2.05063C14.3505 1.82958 13.9924 1.8292 13.7718 2.04969L6.98974 8.81381L4.5428 6.1562C4.33137 5.92669 3.97389 5.91181 3.74399 6.12321C3.51428 6.33465 3.49957 6.69231 3.71101 6.92202L6.55649 10.0123C6.6607 10.1255 6.80654 10.1913 6.96032 10.1945C6.96445 10.1947 6.96844 10.1947 6.97239 10.1947C7.12184 10.1947 7.2656 10.1353 7.3715 10.0298L14.57 2.85017C14.7912 2.62971 14.7916 2.27167 14.5711 2.05063Z" fill="white"/>
<path d="M14.4347 6.93466C14.1224 6.93466 13.8693 7.18772 13.8693 7.5C13.8693 11.0122 11.0122 13.8693 7.5 13.8693C3.98801 13.8693 1.13065 11.0122 1.13065 7.5C1.13065 3.98801 3.98801 1.13065 7.5 1.13065C7.81225 1.13065 8.06534 0.877588 8.06534 0.565342C8.06534 0.253066 7.81225 0 7.5 0C3.36445 0 0 3.36445 0 7.5C0 11.6354 3.36445 15 7.5 15C11.6354 15 15 11.6354 15 7.5C15 7.18775 14.7469 6.93466 14.4347 6.93466Z" fill="white"/>
</svg>
