<svg width="15" height="15" viewBox="0 0 15 15" fill="none" xmlns="http://www.w3.org/2000/svg">
<g clip-path="url(#clip0)">
<path d="M13.8444 9.42289C13.6381 9.42289 13.4708 9.59013 13.4708 9.79647V13.1134C13.4701 13.7322 12.9688 14.2336 12.3501 14.2342H1.86789C1.24915 14.2336 0.747885 13.7322 0.747155 13.1134V3.37838C0.747885 2.75979 1.24915 2.25838 1.86789 2.25765H5.18485C5.39119 2.25765 5.55843 2.09042 5.55843 1.88408C5.55843 1.67788 5.39119 1.5105 5.18485 1.5105H1.86789C0.836756 1.51167 0.00116743 2.34725 0 3.37838V13.1136C0.00116743 14.1447 0.836756 14.9803 1.86789 14.9815H12.3501C13.3812 14.9803 14.2168 14.1447 14.218 13.1136V9.79647C14.218 9.59013 14.0508 9.42289 13.8444 9.42289Z" fill="white"/>
<path d="M14.0701 0.549263C13.4135 -0.107271 12.3491 -0.107271 11.6926 0.549263L5.02771 7.21412C4.98203 7.2598 4.94905 7.31642 4.93183 7.37858L4.05538 10.5428C4.01934 10.6725 4.05596 10.8114 4.15111 10.9067C4.2464 11.0019 4.38533 11.0385 4.51506 11.0026L7.67924 10.126C7.74141 10.1088 7.79803 10.0758 7.8437 10.0301L14.5084 3.3651C15.1639 2.70813 15.1639 1.6446 14.5084 0.987633L14.0701 0.549263ZM5.8417 7.45695L11.2964 2.00213L13.0556 3.7613L7.60073 9.21612L5.8417 7.45695ZM5.4903 8.16208L6.89575 9.56766L4.95168 10.1063L5.4903 8.16208ZM13.9802 2.83684L13.584 3.23304L11.8247 1.47372L12.221 1.07753C12.5857 0.712849 13.177 0.712849 13.5417 1.07753L13.9802 1.5159C14.3443 1.88101 14.3443 2.47187 13.9802 2.83684Z" fill="white"/>
</g>
<defs>
<clipPath id="clip0">
<rect width="15" height="15" fill="white"/>
</clipPath>
</defs>
</svg>
